<svg width="48" height="48" viewBox="0 0 48 48" fill="none" xmlns="http://www.w3.org/2000/svg">
<path d="M21.86 15.6398C22.8552 16.2796 24.6356 17.9759 25.4612 18.7951C26.2704 18.3936 26.9971 16.107 27.6409 15.3263C28.1146 14.7518 28.2714 13.9782 28.6833 13.3412C29.1784 12.5754 29.5899 11.7069 30.0101 10.8963C30.5882 9.78081 31.5191 8.82808 32.5162 8.07533C34.1625 6.83243 35.8263 6.91136 37.76 7.12455C38.9424 7.2549 40.1545 7.23991 40.9295 8.17981C42.0938 9.59185 42.1366 11.1632 41.8561 12.9441C40.8214 19.5153 37.9874 25.9531 35.1486 31.9179C33.801 34.7496 31.705 37.7967 31.5264 40.9868C31.5152 41.1857 28.4324 39.0705 27.9883 38.7927C24.5408 36.6362 20.794 35.004 17.3532 32.8373C13.914 30.6717 9.34888 28.7032 7.27617 25.0012C5.46682 21.7697 5.64363 16.9988 7.41306 13.7382C8.31126 12.0831 8.9078 11.6486 10.7194 11.6486C12.7317 11.6486 14.8919 12.2266 16.7425 12.965C18.5621 13.6911 20.2184 14.5844 21.86 15.6398Z" stroke="#446B3A" stroke-width="6" stroke-linecap="round"/>
</svg>
