<svg width="32" height="32" viewBox="0 0 32 32" fill="none" xmlns="http://www.w3.org/2000/svg">
<path d="M13.3098 5.45096C14.4102 3.22122 17.5898 3.22122 18.6902 5.45096L20.0043 8.11354C20.4413 8.99897 21.286 9.61268 22.2631 9.75466L25.2014 10.1816C27.6621 10.5392 28.6446 13.5631 26.8641 15.2987L24.7379 17.3712C24.0308 18.0604 23.7082 19.0534 23.8751 20.0266L24.377 22.9531C24.7973 25.4038 22.225 27.2727 20.0241 26.1156L17.396 24.7339C16.522 24.2745 15.4779 24.2745 14.604 24.7339L11.9759 26.1156C9.77497 27.2727 7.20267 25.4038 7.623 22.9531L8.12493 20.0266C8.29185 19.0534 7.9692 18.0604 7.26214 17.3712L5.13594 15.2987C3.35539 13.5631 4.33792 10.5392 6.79859 10.1816L9.73692 9.75466C10.714 9.61268 11.5587 8.99897 11.9957 8.11354L13.3098 5.45096Z" fill="url(#paint0_radial_1381_767)"/>
<defs>
<radialGradient id="paint0_radial_1381_767" cx="0" cy="0" r="1" gradientUnits="userSpaceOnUse" gradientTransform="translate(16 16) rotate(90) scale(16)">
<stop stop-color="#F631F3"/>
<stop offset="1" stop-color="white"/>
</radialGradient>
</defs>
</svg>
